<svg xmlns="http://www.w3.org/2000/svg" width="1em" height="1em" fill="#26A2C1" viewBox="0 0 16 16" class="FileName-icon-i4M61"><path d="M16 8c0-1.06-1.32-2.06-3.36-2.68.46-2.08.26-3.72-.66-4.26a1.5 1.5 0 0 0-.74-.18v.72c.16 0 .28.02.38.08.44.26.64 1.22.48 2.46l-.16.96a15.5 15.5 0 0 0-2.08-.36c-.44-.6-.9-1.16-1.36-1.64 1.08-.96 2.08-1.5 2.76-1.5V.88c-.9 0-2.08.64-3.26 1.74C6.8 1.52 5.64.88 4.74.88v.72c.68 0 1.68.54 2.74 1.52-.46.48-.92 1.02-1.34 1.62-.74.08-1.44.2-2.08.36a5.44 5.44 0 0 1-.16-.94c-.16-1.24.04-2.22.48-2.48.1-.06.22-.08.38-.08V.9c-.28 0-.52.06-.74.18-.92.52-1.12 2.18-.64 4.24C1.32 5.94 0 6.94 0 8s1.32 2.06 3.36 2.68c-.46 2.08-.26 3.72.66 4.26.22.12.46.18.74.18.9 0 2.08-.64 3.26-1.74 1.18 1.1 2.36 1.74 3.26 1.74.28 0 .52-.06.74-.18.92-.52 1.12-2.18.64-4.24C14.68 10.06 16 9.06 16 8zm-4.24-2.18c-.12.42-.28.86-.44 1.28l-.42-.78c-.16-.26-.3-.52-.46-.76.44.08.88.16 1.32.26zm-1.5 3.48c-.26.44-.52.86-.78 1.24a17.94 17.94 0 0 1-2.94 0A16.05 16.05 0 0 1 5.08 8a16.05 16.05 0 0 1 1.46-2.54 17.94 17.94 0 0 1 2.94 0A16.05 16.05 0 0 1 10.94 8c-.2.44-.44.88-.68 1.3zm1.06-.42c.18.44.32.88.46 1.3-.42.1-.88.2-1.34.26.16-.26.32-.5.46-.78l.42-.78zM8 12.36c-.3-.32-.6-.66-.9-1.04.3.02.6.02.9.02.3 0 .6 0 .9-.02-.28.38-.6.72-.9 1.04zm-2.42-1.92c-.46-.06-.9-.16-1.34-.26.12-.42.28-.86.44-1.28l.42.78.48.76zM8 3.64c.3.32.6.66.9 1.04-.3-.02-.6-.02-.9-.02-.3 0-.6 0-.9.02.28-.38.6-.72.9-1.04zM5.58 5.56c-.16.26-.32.5-.46.78-.16.26-.3.52-.42.78-.18-.44-.32-.88-.46-1.3.42-.1.88-.18 1.34-.26zm-2.96 4.1C1.46 9.16.72 8.52.72 8s.74-1.16 1.9-1.66c.28-.12.58-.22.9-.32.18.64.44 1.3.74 1.98-.3.68-.54 1.34-.72 1.98-.32-.1-.62-.2-.92-.32zm1.76 4.66c-.44-.26-.64-1.22-.48-2.46l.16-.96c.64.16 1.34.28 2.08.36.44.6.9 1.16 1.36 1.64-1.08.96-2.08 1.5-2.74 1.5a.98.98 0 0 1-.38-.08zm7.74-2.5c.16 1.24-.04 2.22-.48 2.48a.72.72 0 0 1-.38.08c-.68 0-1.68-.54-2.74-1.52.46-.48.92-1.02 1.34-1.62.74-.08 1.44-.2 2.08-.36.08.32.14.64.18.94zm1.26-2.16c-.28.12-.58.22-.9.32-.18-.64-.44-1.3-.74-1.98.3-.68.54-1.34.72-1.98.32.1.62.22.92.34 1.16.5 1.9 1.14 1.9 1.66 0 .5-.76 1.14-1.9 1.64zM8 9.5a1.5 1.5 0 1 0 0-3 1.5 1.5 0 0 0 0 3z"></path></svg>