<svg width="64" height="64" viewBox="0 0 64 64" fill="none" xmlns="http://www.w3.org/2000/svg">
    <path fill-rule="evenodd" clip-rule="evenodd" d="M32.5744 16C32.9311 16 33.0604 16.0371 33.1907 16.1069C33.3211 16.1766 33.4234 16.2789 33.4931 16.4093C33.5629 16.5396 33.6 16.6689 33.6 17.0256V30.4H46.9744C47.3311 30.4 47.4604 30.4371 47.5907 30.5069C47.7211 30.5766 47.8234 30.6789 47.8931 30.8093C47.9629 30.9396 48 31.0689 48 31.4256V32.5744C48 32.9311 47.9629 33.0604 47.8931 33.1907C47.8234 33.3211 47.7211 33.4234 47.5907 33.4931C47.4604 33.5629 47.3311 33.6 46.9744 33.6H33.5992L33.6 46.9744C33.6 47.3311 33.5629 47.4604 33.4931 47.5907C33.4234 47.7211 33.3211 47.8234 33.1907 47.8931C33.0604 47.9629 32.9311 48 32.5744 48H31.4256C31.0689 48 30.9396 47.9629 30.8093 47.8931C30.6789 47.8234 30.5766 47.7211 30.5069 47.5907C30.4371 47.4604 30.4 47.3311 30.4 46.9744L30.3992 33.5992L17.0256 33.6C16.6689 33.6 16.5396 33.5629 16.4093 33.4931C16.2789 33.4234 16.1766 33.3211 16.1069 33.1907C16.0371 33.0604 16 32.9311 16 32.5744V31.4256C16 31.0689 16.0371 30.9396 16.1069 30.8093C16.1766 30.6789 16.2789 30.5766 16.4093 30.5069C16.5396 30.4371 16.6689 30.4 17.0256 30.4L30.4 30.3992V17.0256C30.4 16.6689 30.4371 16.5396 30.5069 16.4093C30.5766 16.2789 30.6789 16.1766 30.8093 16.1069C30.9396 16.0371 31.0689 16 31.4256 16H32.5744Z" fill="#4495FF"/>
</svg>
