<svg xmlns="http://www.w3.org/2000/svg" fill="currentColor" viewBox="0 0 24 24" width="1em" height="1em"><path d="m14.346 0 .854 4.274 3.627-2.418 3.317 3.317L19.726 8.8 24 9.654v4.692l-4.274.854 2.418 3.627-3.317 3.317-3.627-2.418L14.346 24H9.654L8.8 19.726l-3.627 2.418-3.317-3.317L4.274 15.2 0 14.346V9.654L4.274 8.8 1.856 5.173l3.317-3.317L8.8 4.274 9.654 0h4.692zm-3.462 1.5-.823 4.117-1.204.498-3.493-2.329-1.578 1.578 2.329 3.494-.498 1.203-4.117.823v2.232l4.117.823.498 1.204-2.329 3.493 1.578 1.578 3.494-2.329 1.203.498.823 4.117h2.232l.823-4.117 1.204-.498 3.492 2.329 1.579-1.578-2.329-3.493.498-1.204 4.117-.823v-2.232l-4.117-.823-.498-1.203 2.329-3.494-1.578-1.578-3.493 2.329-1.204-.498-.823-4.117h-2.232zM12 8.423a3.577 3.577 0 1 0 0 7.154 3.577 3.577 0 0 0 0-7.154zM6.923 12a5.077 5.077 0 1 1 10.154 0 5.077 5.077 0 0 1-10.154 0z"></path></svg>