<?xml version="1.0" encoding="UTF-8"?>
<svg id="Layer_1" data-name="Layer 1" xmlns="http://www.w3.org/2000/svg" viewBox="0 0 150.87 98.66">
  <defs>
    <style>
      .cls-1 {
        stroke-dasharray: 0 0 12.01 6.01;
      }

      .cls-1, .cls-2 {
        fill: none;
        stroke: #fff;
        stroke-miterlimit: 10;
        stroke-width: .5px;
      }

      .cls-3 {
        fill: #fff;
      }
    </style>
  </defs>
  <path class="cls-2" d="m16.28.15s-1.35,1.85-3.26,5.03"/>
  <path class="cls-1" d="m10.08,10.41C5.57,18.99.25,31.91.25,45.17c0,15.81,9.42,31.28,28.9,31.28,34.63.26,33.05-34.52,68.94-36.04,36.21-1.54,52.62,16.45,52.53,25.4-.14,13.29-18.65,22.22-31.6,18.9-18.19-5.09-23.45-13.2-33.4-14.21-8.31-.85-15.31,1.65-14.47,10.49.37,3.91,5.04,5.56,8.24,8.92"/>
  <path class="cls-2" d="m81.17,92.31c.84,1.54,1.32,3.41,1.18,5.81"/>
  <polygon class="cls-3" points="80.33 96.4 80.7 96.07 82.33 97.93 84.06 96.17 84.41 96.52 82.31 98.66 80.33 96.4"/>
</svg>