<svg width="28" height="28" viewBox="0 0 28 28" fill="none" xmlns="http://www.w3.org/2000/svg">
<g clip-path="url(#clip0_21739_81101)">
<rect width="28" height="28" fill="#A8DD63"/>
<path d="M14.698 5.17802L21.306 8.99195C21.7304 9.23535 22 9.70204 22 10.1908V17.8207C22 18.3196 21.7304 18.7762 21.306 19.0216L14.698 22.8356C14.4948 22.9663 14.2494 23.0226 14.0121 23.0307C13.7667 23.0307 13.5313 22.9663 13.3181 22.8436L11.1134 21.5361C10.7875 21.349 10.9424 21.2826 11.0571 21.2504C11.4976 21.0956 11.5881 21.0634 12.0528 20.7938C12.1011 20.7697 12.1675 20.7777 12.2157 20.8019L13.9135 21.8056C13.9718 21.8378 14.0624 21.8378 14.1187 21.8056L20.7287 17.9897C20.787 17.9575 20.8273 17.8851 20.8273 17.8107V10.1828C20.8273 10.1104 20.785 10.036 20.7206 10.0038L14.1126 6.18984C14.0543 6.15766 13.9718 6.15766 13.9075 6.18984L7.30752 10.0118C7.24114 10.044 7.20091 10.1164 7.20091 10.1908V17.8187C7.20091 17.8911 7.24315 17.9575 7.30752 17.9977L9.11994 19.0438C10.1016 19.5346 10.7051 18.9532 10.7051 18.3739V10.8446C10.7051 10.74 10.7855 10.6575 10.8921 10.6575H11.7249C11.8295 10.6575 11.912 10.738 11.912 10.8446V18.3759C11.912 19.6814 11.2019 20.4418 9.95273 20.4418C9.56852 20.4418 9.26678 20.4418 8.42595 20.0254L6.69399 19.0297C6.26955 18.7843 6 18.3196 6 17.8207V10.1929C6 9.69399 6.2615 9.23737 6.69399 8.99195L13.31 5.17802C13.7264 4.94066 14.2816 4.94066 14.698 5.17802ZM13.791 15.3042C13.9218 16.1712 14.306 16.6117 16.054 16.6117C17.4501 16.6117 18.0394 16.2919 18.0394 15.5577C18.0394 15.1332 17.8685 14.8154 15.704 14.6022C13.8896 14.4232 12.7712 14.0229 12.7712 12.5765C12.7712 11.2449 13.8976 10.4523 15.7764 10.4523C17.8906 10.4523 18.9366 11.1866 19.0754 12.7636C19.0834 12.8199 19.0593 12.8702 19.0271 12.9105C18.9949 12.9507 18.9366 12.9668 18.8883 12.9668H18.0294C17.9409 12.9668 17.8664 12.9024 17.8423 12.8199C17.6391 11.9047 17.1403 11.611 15.7764 11.611C14.2577 11.611 14.0787 12.142 14.0787 12.5343C14.0787 13.0171 14.2919 13.1559 16.3417 13.4254C18.3754 13.695 19.3389 14.0792 19.3389 15.4994C19.3389 16.9376 18.138 17.7624 16.048 17.7624L16.056 17.7704C13.1634 17.7704 12.5599 16.4388 12.5599 15.3284C12.5599 15.2238 12.6404 15.1413 12.747 15.1413H13.6039C13.7005 15.1413 13.7749 15.2057 13.791 15.3042Z" fill="#203800" stroke="#203800" stroke-width="0.4"/>
</g>
<defs>
<clipPath id="clip0_21739_81101">
<rect width="28" height="28" fill="white"/>
</clipPath>
</defs>
</svg>
