<svg xmlns="http://www.w3.org/2000/svg" viewBox="0 0 16 16" fill="#673AB8">
  <path d="m8 0 6.93 4v8L8 16l-6.93-4V4L8 0Z"></path>
  <path d="M2.99 11.91c.92 1.18 3.84.28 6.6-1.87 2.76-2.16 4.34-4.78 3.42-5.95-.92-1.18-3.84-.28-6.6 1.87-2.76 2.16-4.34 4.78-3.42 5.95Zm.4-.3c-.31-.4-.18-1.16.4-2.12a12.31 12.31 0 0 1 2.92-3.14C8 5.36 9.33 4.62 10.46 4.28c1.08-.33 1.85-.28 2.16.11.3.4.17 1.16-.41 2.12a12.31 12.31 0 0 1-2.92 3.14 12.3 12.3 0 0 1-3.75 2.07c-1.08.33-1.85.28-2.16-.11Zm9.62.3c.92-1.17-.66-3.8-3.42-5.95C6.83 3.81 3.91 2.91 3 4.1c-.92 1.17.66 3.8 3.42 5.95 2.76 2.15 5.68 3.05 6.6 1.87Zm-.4-.3c-.3.39-1.07.44-2.15.11A12.3 12.3 0 0 1 6.7 9.65c-1.27-1-2.3-2.12-2.92-3.14-.58-.96-.71-1.73-.4-2.12.3-.39 1.07-.44 2.15-.11 1.13.34 2.47 1.08 3.75 2.07 1.27 1 2.3 2.12 2.92 3.14.58.96.71 1.73.4 2.12ZM8 9.06a1.06 1.06 0 1 0 0-2.12 1.06 1.06 0 0 0 0 2.12Z" fill="#fff"></path>
</svg>
