<svg width="29" height="28" viewBox="0 0 29 28" fill="none" xmlns="http://www.w3.org/2000/svg">
<rect x="0.666626" width="28" height="28" rx="6" fill="#B6A3FF"/>
<path d="M19.0599 11.2374C18.9813 11.1584 18.9194 11.0645 18.8777 10.9612C18.836 10.8579 18.8155 10.7473 18.8173 10.6359C18.8192 10.5245 18.8433 10.4146 18.8883 10.3127C18.9334 10.2108 18.9984 10.1189 19.0795 10.0426C19.1606 9.96624 19.2562 9.90694 19.3607 9.86819C19.4652 9.82944 19.5763 9.81203 19.6876 9.81699C19.7989 9.82194 19.9081 9.84916 20.0087 9.89704C20.1093 9.94492 20.1992 10.0125 20.2733 10.0957L23.6066 13.6374C23.7519 13.7919 23.8328 13.9961 23.8328 14.2082C23.8328 14.4204 23.7519 14.6245 23.6066 14.7791L20.2733 18.3207C20.1202 18.4745 19.9132 18.5625 19.6963 18.566C19.4794 18.5696 19.2696 18.4884 19.1116 18.3397C18.9536 18.1911 18.8598 17.9866 18.8502 17.7699C18.8405 17.5531 18.9158 17.3412 19.0599 17.1791L21.8558 14.2082L19.0599 11.2374ZM10.2733 11.2374L7.47744 14.2082L10.2733 17.1791C10.4174 17.3412 10.4927 17.5531 10.4831 17.7699C10.4734 17.9866 10.3796 18.1911 10.2216 18.3397C10.0636 18.4884 9.85385 18.5696 9.63692 18.566C9.41999 18.5625 9.213 18.4745 9.05994 18.3207L5.72661 14.7791C5.5813 14.6245 5.5004 14.4204 5.5004 14.2082C5.5004 13.9961 5.5813 13.7919 5.72661 13.6374L9.05994 10.0957C9.213 9.94197 9.41999 9.85396 9.63692 9.85041C9.85385 9.84686 10.0636 9.92805 10.2216 10.0767C10.3796 10.2254 10.4734 10.4298 10.4831 10.6466C10.4927 10.8633 10.4174 11.0753 10.2733 11.2374Z" fill="#1E1328"/>
<path opacity="0.5" d="M16.3921 7.56047C16.9287 7.70426 17.1251 8.04447 16.9813 8.58109L13.9618 19.8502C13.818 20.3869 13.4778 20.5833 12.9412 20.4395C12.4045 20.2957 12.2081 19.9555 12.3519 19.4189L15.3715 8.14973C15.5153 7.6131 15.8555 7.41668 16.3921 7.56047Z" fill="#1E1328"/>
</svg>
