<svg width="29" height="28" viewBox="0 0 29 28" fill="none" xmlns="http://www.w3.org/2000/svg">
<rect x="0.333374" width="28" height="28" rx="6" fill="#51BDEA"/>
<path d="M11.0505 5.00854C10.4469 4.96782 9.85337 5.07639 9.33337 5.37639C8.6398 5.77639 8.17766 6.45996 7.9298 7.24782C7.68195 8.03354 7.6248 8.94068 7.71552 9.93139C7.72409 10.0314 7.74195 10.1364 7.75409 10.2385C7.6598 10.2785 7.5598 10.3157 7.46837 10.3585C6.56552 10.775 5.80909 11.2778 5.25123 11.8857C4.69409 12.4942 4.33337 13.2357 4.33337 14.0371C4.33337 14.8378 4.69409 15.58 5.25123 16.1885C5.80837 16.7964 6.56552 17.2992 7.46837 17.7157C7.5598 17.7585 7.6598 17.7957 7.75409 17.8357C7.74195 17.9378 7.72409 18.0428 7.7148 18.1428C7.6248 19.1335 7.68195 20.04 7.9298 20.8271C8.17766 21.6143 8.6398 22.2971 9.33337 22.6978C10.0269 23.0978 10.8491 23.1571 11.6548 22.9785C12.4605 22.8 13.2741 22.395 14.0862 21.8214C14.1684 21.7642 14.2505 21.6964 14.3334 21.635C14.4155 21.6964 14.4977 21.7635 14.5805 21.8214C15.3927 22.395 16.2062 22.8 17.0119 22.9785C17.8177 23.1571 18.6398 23.0985 19.3334 22.6978C20.0269 22.2978 20.4891 21.6142 20.7369 20.8264C20.9848 20.0407 21.0419 19.1335 20.9512 18.1428C20.9427 18.0428 20.9248 17.9378 20.9127 17.8357C21.0069 17.7957 21.1069 17.7585 21.1984 17.7157C22.1012 17.2992 22.8577 16.7964 23.4155 16.1885C23.9727 15.58 24.3334 14.8385 24.3334 14.0371C24.3334 13.2364 23.9727 12.4942 23.4155 11.8857C22.8584 11.2778 22.1012 10.775 21.1984 10.3585C21.1069 10.3157 21.0069 10.2785 20.9127 10.2385C20.9248 10.1364 20.9427 10.0314 20.9519 9.93139C21.0419 8.94068 20.9848 8.03425 20.7369 7.24711C20.4891 6.45996 20.0269 5.77711 19.3334 5.37639C18.6398 4.97639 17.8177 4.91711 17.0119 5.09568C16.2062 5.27425 15.3927 5.67925 14.5805 6.25282C14.4984 6.30996 14.4162 6.37782 14.3334 6.43925C14.2512 6.37782 14.1691 6.31068 14.0862 6.25282C13.2741 5.67925 12.4605 5.27425 11.6548 5.09568C11.4559 5.0511 11.2539 5.02173 11.0505 5.00782V5.00854ZM10.9577 6.43139C11.0791 6.43996 11.2084 6.45996 11.3462 6.49139C11.8862 6.61068 12.5327 6.91354 13.2148 7.38782C12.6159 7.9579 12.0608 8.57225 11.5541 9.22568C10.7361 9.33724 9.92762 9.51011 9.13552 9.74282C9.06552 8.91568 9.12552 8.20425 9.29123 7.67711C9.46195 7.13711 9.71623 6.80568 10.0477 6.61354C10.2962 6.47068 10.5919 6.40354 10.9569 6.43139H10.9577ZM17.7098 6.43139C18.0741 6.40354 18.3705 6.47068 18.6191 6.61354C18.9505 6.80496 19.2048 7.13711 19.3755 7.67711C19.5412 8.20425 19.6012 8.91568 19.5312 9.74282C18.7391 9.51011 17.9307 9.33724 17.1127 9.22568C16.606 8.57225 16.0509 7.9579 15.4519 7.38782C16.1341 6.91354 16.7805 6.61068 17.3205 6.49139C17.4584 6.46068 17.5877 6.43996 17.7098 6.43139ZM14.3334 8.29354C14.5841 8.52568 14.8348 8.78354 15.0855 9.05353C14.8349 9.0436 14.5842 9.03812 14.3334 9.03711C14.0798 9.03711 13.8305 9.04496 13.5812 9.05353C13.8312 8.78354 14.0827 8.52568 14.3334 8.29354ZM14.3334 10.4657C15.0227 10.4657 15.6905 10.5064 16.3327 10.5743C16.7266 11.1136 17.0916 11.6734 17.4262 12.2514C17.7705 12.8478 18.0691 13.4464 18.3319 14.0371C18.0618 14.6479 17.7595 15.244 17.4262 15.8228C17.0916 16.4008 16.7266 16.9606 16.3327 17.5C15.6898 17.5678 15.0227 17.6085 14.3334 17.6085C13.6441 17.6085 12.9762 17.5678 12.3341 17.5C11.9402 16.9606 11.5752 16.4008 11.2405 15.8228C10.8962 15.2264 10.5977 14.6278 10.3348 14.0371C10.5969 13.4464 10.8962 12.8478 11.2405 12.2514C11.5848 11.655 11.9541 11.0964 12.3341 10.5743C12.9981 10.5028 13.6655 10.4665 14.3334 10.4657ZM10.3934 10.8943C10.2612 11.105 10.1298 11.3171 10.0034 11.5371C9.879 11.7549 9.7585 11.975 9.64195 12.1971C9.5348 11.857 9.44069 11.513 9.3598 11.1657C9.68623 11.065 10.0348 10.9757 10.3934 10.8943ZM18.2734 10.8943C18.6319 10.9757 18.9805 11.065 19.3069 11.1657C19.2312 11.4992 19.1334 11.8457 19.0248 12.1971C18.9082 11.975 18.7878 11.7549 18.6634 11.5371C18.5372 11.3205 18.4072 11.1062 18.2734 10.8943ZM8.0148 11.6821C8.19766 12.4428 8.4498 13.2321 8.77695 14.0371C8.46418 14.8019 8.20942 15.5891 8.0148 16.3921C7.26409 16.0385 6.67766 15.63 6.3048 15.2228C5.92266 14.8057 5.76195 14.42 5.76195 14.0371C5.76195 13.6543 5.92266 13.2685 6.3048 12.8514C6.67766 12.4443 7.26409 12.0357 8.0148 11.6821ZM20.6519 11.6821C21.4027 12.0357 21.9891 12.4443 22.3619 12.8514C22.7441 13.2685 22.9048 13.6543 22.9048 14.0371C22.9048 14.42 22.7441 14.8057 22.3619 15.2228C21.9891 15.63 21.4027 16.0385 20.6519 16.3921C20.4573 15.5891 20.2026 14.8019 19.8898 14.0371C20.2169 13.2321 20.4691 12.4428 20.6519 11.6821ZM14.3334 11.8942C13.1584 11.8942 12.1905 12.8621 12.1905 14.0371C12.1905 15.2121 13.1584 16.18 14.3334 16.18C15.5084 16.18 16.4762 15.2121 16.4762 14.0371C16.4762 12.8621 15.5084 11.8942 14.3334 11.8942ZM14.3334 13.3228C14.7362 13.3228 15.0477 13.6342 15.0477 14.0371C15.0477 14.44 14.7362 14.7514 14.3334 14.7514C13.9305 14.7514 13.6191 14.44 13.6191 14.0371C13.6191 13.6342 13.9305 13.3228 14.3334 13.3228ZM9.64195 15.8771C9.75837 16.0971 9.87623 16.3171 10.0027 16.5371C10.1298 16.7571 10.2612 16.9692 10.3934 17.18C10.0348 17.0985 9.68623 17.0092 9.3598 16.9085C9.43552 16.575 9.53337 16.2285 9.64195 15.8771ZM19.0248 15.8771C19.1334 16.2285 19.2319 16.575 19.3069 16.9085C18.9805 17.0092 18.6319 17.0985 18.2734 17.18C18.4055 16.9692 18.5369 16.7571 18.6641 16.5371C18.7905 16.3171 18.9084 16.0971 19.0248 15.8771ZM9.13552 18.3314C9.88552 18.5528 10.6948 18.73 11.5541 18.8485C12.0877 19.5342 12.6469 20.1471 13.2148 20.6864C12.5327 21.1607 11.8862 21.4635 11.3462 21.5828C10.7941 21.7057 10.3791 21.6514 10.0477 21.4607C9.71623 21.2692 9.46195 20.9371 9.29123 20.3971C9.12552 19.87 9.06552 19.1585 9.13552 18.3314ZM19.5312 18.3314C19.6012 19.1585 19.5412 19.87 19.3755 20.3971C19.2048 20.9371 18.9505 21.2685 18.6191 21.4607C18.2877 21.6514 17.8727 21.7057 17.3205 21.5828C16.7805 21.4635 16.1341 21.1607 15.4519 20.6864C16.0509 20.1163 16.606 19.502 17.1127 18.8485C17.9307 18.737 18.7391 18.5641 19.5312 18.3314ZM13.5812 19.0207C13.8305 19.0292 14.0798 19.0371 14.3334 19.0371C14.5869 19.0371 14.8362 19.0292 15.0855 19.0207C14.8355 19.2907 14.5841 19.5485 14.3334 19.7807C14.0731 19.537 13.8222 19.2835 13.5812 19.0207Z" fill="#0E2F4E"/>
</svg>
