<svg xmlns="http://www.w3.org/2000/svg" width="1em" height="1em" viewBox="0 -1 16 16" class="FileName-icon-i4M61"><path fill="#F03D70" d="M13.926 1.713C13.5.068 10.709-.473 8.07.444a13.334 13.334 0 0 0-4.493 2.521c-1.453 1.33-1.685 2.487-1.59 2.971.338 1.706 2.728 2.821 3.713 3.649-.29.139-2.41 1.189-2.907 2.263a1.449 1.449 0 0 0 .485 2.054 3.008 3.008 0 0 0 3.21-1.273 3.13 3.13 0 0 0 .32-2.836 3.9 3.9 0 0 1 1.449-.081c1.661.19 1.987 1.2 1.924 1.629a1.074 1.074 0 0 1-.527.728c-.116.071-.152.095-.142.147.014.076.068.073.167.057a1.276 1.276 0 0 0 .9-1.129c.04-.995-.935-2.108-2.661-2.079a4.649 4.649 0 0 0-1.481.2l-.073-.079C5.3 8.073 3.326 7.285 3.41 5.788c.03-.544.224-1.977 3.79-3.715 2.921-1.424 5.26-1.032 5.664-.164.577 1.241-1.25 3.547-4.284 3.879a2.313 2.313 0 0 1-1.916-.475c-.159-.172-.183-.18-.243-.147-.1.053-.035.2 0 .295a1.789 1.789 0 0 0 1.1.843 5.932 5.932 0 0 0 3.556-.344c1.835-.695 3.271-2.63 2.849-4.247Zm-7.82 8.382a2.322 2.322 0 0 1-.02 1.384q-.024.07-.052.139t-.061.135a2.586 2.586 0 0 1-.437.624A1.665 1.665 0 0 1 3.887 13c-.356-.2-.178-1.03.46-1.689a6.417 6.417 0 0 1 1.673-1.167Z" class="scss_svg__i-color"></path></svg>