<svg xmlns="http://www.w3.org/2000/svg" width="1em" height="1em" viewBox="0 -1 16 16" class="FileName-icon-i4M61"><path fill="#1E9CEF" d="M10.771 10.992a2.282 2.282 0 0 1-1.632-.759v1.29c1.055.686 2.87.56 3.5-.264a1.9 1.9 0 0 0 .253-1.889c-.656-1.321-2.214-1.4-2.668-2.238-.5-1.351 1.564-1.6 2.557-.685V5.234a2.846 2.846 0 0 0-1.566-.277 1.919 1.919 0 0 0-2.067 1.867c-.054 1.5 1.663 1.891 2.525 2.586.586.498.544 1.703-.902 1.582Zm-4.913.862V6.016H3.977v-.965h4.8v.965H6.9v5.838H5.857ZM14.125.875v12.25H1.875V.875h12.25ZM15 0H1v14h14V0Z" class="typeScript_svg__i-color"></path></svg>